HIERARCHY
ROOT Hips
{
	OFFSET 0.00000 0.00000 0.00000
	CHANNELS 6 Xposition Yposition Zposition Zrotation Yrotation Xrotation 
	JOINT LHipJoint
	{
		OFFSET 0 0 0
		CHANNELS 3 Zrotation Yrotation Xrotation
		JOINT LeftHip
		{
			OFFSET 1.76014 -1.80163 0.38499
			CHANNELS 3 Zrotation Yrotation Xrotation
			JOINT LeftKnee
			{
				OFFSET 2.46817 -6.78126 0.00000
				CHANNELS 3 Zrotation Yrotation Xrotation
				JOINT LeftAnkle
				{
					OFFSET 2.79348 -7.67503 0.00000
					CHANNELS 3 Zrotation Yrotation Xrotation
					JOINT LeftToe
					{
						OFFSET 0.09421 -0.25885 1.91403
						CHANNELS 3 Zrotation Yrotation Xrotation
						End Site
						{
							OFFSET 0.00000 -0.00000 0.97975
						}
					}
				}
			}
		}
	}
	JOINT RHipJoint
	{
		OFFSET 0 0 0
		CHANNELS 3 Zrotation Yrotation Xrotation
		JOINT RightHip
		{
			OFFSET -1.77926 -1.80163 0.38499
			CHANNELS 3 Zrotation Yrotation Xrotation
			JOINT RightKnee
			{
				OFFSET -2.51996 -6.92353 0.00000
				CHANNELS 3 Zrotation Yrotation Xrotation
				JOINT RightAnkle
				{
					OFFSET -2.76109 -7.58603 0.00000
					CHANNELS 3 Zrotation Yrotation Xrotation
					JOINT RightToe
					{
						OFFSET -0.08067 -0.22163 1.86812
						CHANNELS 3 Zrotation Yrotation Xrotation
						End Site
						{
							OFFSET -0.00000 -0.00000 0.95558
						}
					}
				}
			}
		}
	}
	JOINT lowerback
	{
		OFFSET 0 0 0
		CHANNELS 3 Zrotation Yrotation Xrotation
		JOINT Chest
		{
			OFFSET 0.05537 1.92033 -0.03713
			CHANNELS 3 Zrotation Yrotation Xrotation
			JOINT Chest2
			{
				OFFSET 0.04452 1.90073 0.10860
				CHANNELS 3 Zrotation Yrotation Xrotation
				JOINT lowerneck
				{
					OFFSET 0 0 0
					CHANNELS 3 Zrotation Yrotation Xrotation
					JOINT Neck
					{
						OFFSET 0.00903 1.74649 0.02074
						CHANNELS 3 Zrotation Yrotation Xrotation
						JOINT Head
						{
							OFFSET -0.08608 1.67844 -0.12081
							CHANNELS 3 Zrotation Yrotation Xrotation
							End Site
							{
								OFFSET -0.03521 1.83380 -0.05059
							}
						}
					}
				}
				JOINT LeftCollar
				{
					OFFSET 0 0 0
					CHANNELS 3 Zrotation Yrotation Xrotation
					JOINT LeftShoulder
					{
						OFFSET 3.28197 0.84325 -0.19106
CHANNELS 3 Zrotation Xrotation Yrotation
						JOINT LeftElbow
						{
OFFSET 0 -5.243180 -0.000000
CHANNELS 3 Zrotation Xrotation Yrotation
							JOINT LeftWrist
							{
OFFSET 0 -2.989990 0.000000
CHANNELS 3 Zrotation Xrotation Yrotation
								JOINT lhand
								{
									OFFSET 0 0 0
CHANNELS 3 Zrotation Xrotation Yrotation
									JOINT LFingers
									{
OFFSET 0 -0.726740 0.000000
CHANNELS 3 Zrotation Xrotation Yrotation
										End Site
										{
OFFSET 0 -0.585920 0.000000
										}
									}
								}
								JOINT LThumb
								{
OFFSET 0 0.000000 0.000000
CHANNELS 3 Zrotation Xrotation Yrotation
									End Site
									{
OFFSET 0 -0.594870 0.594870
									}
								}
							}
						}
					}
				}
				JOINT RightCollar
				{
					OFFSET 0 0 0
					CHANNELS 3 Zrotation Yrotation Xrotation
					JOINT RightShoulder
					{
						OFFSET -3.30963 0.78377 0.14264
CHANNELS 3 Zrotation Xrotation Yrotation
						JOINT RightElbow
						{
OFFSET 0 -5.370450 0.000000
CHANNELS 3 Zrotation Xrotation Yrotation
							JOINT RightWrist
							{
OFFSET 0 -2.927920 0.000000
CHANNELS 3 Zrotation Xrotation Yrotation
								JOINT rhand
								{
									OFFSET 0 0 0
CHANNELS 3 Zrotation Xrotation Yrotation
									JOINT RFingers
									{
OFFSET 0 -0.784500 0.000000
CHANNELS 3 Zrotation Xrotation Yrotation
										End Site
										{
OFFSET 0 -0.632480 0.000000
										}
									}
								}
								JOINT RThumb
								{
OFFSET 0 0.000000 0.000000
CHANNELS 3 Zrotation Xrotation Yrotation
									End Site
									{
OFFSET 0 -0.642140 0.642140
									}
								}
							}
						}
					}
				}
			}
		}
	}
}
MOTION
Frames: 4
Frame Time: 0.008333333333333333
1.352208 15.986168 0.576547 3.336453 -5.039274 14.571787 0.000000 0.000000 0.000000 -24.315488 3.581243 -47.993212 10.751258 17.811160 61.971107 1.487074 -16.760777 -23.223418 0.122590 -2.252121 -6.203197 0.000000 0.000000 0.000000 8.460689 -6.341920 -50.926144 -11.286593 -18.072477 63.708878 0.100255 22.363367 -15.008982 -0.000577 -0.147166 0.404373 7.529054 -2.171550 5.492658 8.361122 -1.329873 -7.461477 5.118001 -0.836398 -11.205020 6.057808 -0.995776 -12.567478 -1.944618 -2.446332 25.263904 -2.013325 -0.797294 10.008281 0.000000 0.000000 0.000000 53.869433 19.910052 -97.533129 89.542655 -59.999158 59.603982 -5.783480 -29.411920 -7.338617 0.000000 0.000000 0.000000 -7.125000 0.000000 0.000000 -26.825339 36.030872 -6.512145 0.000000 0.000000 0.000000 -114.317375 1.732800 -38.698282 -35.873505 -45.425817 -15.432278 23.523197 36.668966 -2.781043 0.000000 0.000000 0.000000 7.125000 0.000000 0.000000 35.467859 25.523457 20.858230
1.388907 15.991463 0.607171 3.977897 -5.102605 14.629310 0.000000 0.000000 0.000000 -25.253493 3.615060 -47.730043 10.594074 17.730669 61.456009 1.498427 -16.681030 -23.272290 0.160435 -2.578998 -7.108747 0.000000 0.000000 0.000000 7.586296 -6.536358 -51.010941 -11.313574 -18.085153 63.795720 0.105185 22.489065 -15.065795 -0.000137 0.066698 -0.183144 7.984393 -2.106781 5.072549 8.562524 -1.247076 -7.331926 5.038469 -0.822053 -10.820761 6.470026 -0.789180 -12.769295 -1.928304 -2.277769 25.456663 -2.063518 -0.672485 10.123138 0.000000 0.000000 0.000000 54.340442 19.723382 -98.372863 90.188313 -59.999825 60.163109 -5.244679 -29.770057 -7.391225 0.000000 0.000000 0.000000 -7.125000 0.000000 0.000000 -26.428598 36.117878 -6.333615 0.000000 0.000000 0.000000 -113.945997 1.677757 -39.565595 -35.928720 -45.464011 -15.471673 23.441870 37.182487 -2.976940 0.000000 0.000000 0.000000 7.125000 0.000000 0.000000 35.361832 25.360729 20.939724
1.428918 16.000433 0.636416 5.191714 -4.837822 14.507018 0.000000 0.000000 0.000000 -26.766773 3.336726 -47.066646 10.395055 17.626060 60.800683 1.487246 -16.726507 -23.214332 0.160313 -2.579596 -7.110331 0.000000 0.000000 0.000000 6.101118 -7.276179 -50.977685 -11.366905 -18.110009 63.967375 0.130728 22.739456 -15.061894 -0.000102 0.058475 -0.160687 7.768501 -2.268831 4.792194 8.764850 -1.518570 -7.235858 5.393830 -0.925144 -10.521926 6.536230 -0.540853 -13.051147 -1.657652 -2.048814 25.817382 -1.961268 -0.518945 10.326651 0.000000 0.000000 0.000000 54.589832 19.862336 -99.085964 90.353411 -59.999498 60.306048 -4.516886 -28.811494 -6.883545 0.000000 0.000000 0.000000 -7.125000 0.000000 0.000000 -25.710481 35.712071 -6.410888 0.000000 0.000000 0.000000 -113.803206 1.406019 -40.026667 -36.043408 -45.543016 -15.553490 23.518665 36.974345 -2.806552 0.000000 0.000000 0.000000 7.125000 0.000000 0.000000 35.457381 25.501504 20.872840
1.454018 16.008578 0.641762 5.285571 -4.551515 14.634938 0.000000 0.000000 0.000000 -26.915895 3.001282 -47.016278 10.324101 17.588112 60.566193 1.452828 -16.635346 -22.969692 0.153887 -2.525892 -6.961572 0.000000 0.000000 0.000000 5.860647 -6.975869 -50.850919 -11.323547 -18.089797 63.827949 0.094766 22.396358 -15.075379 -0.003409 -0.369808 1.016034 8.610326 -2.201133 4.736276 9.193603 -1.284544 -7.445766 5.395949 -0.856413 -10.773246 6.075221 -0.587772 -12.334319 -1.031537 -2.122129 25.784353 -1.661292 -0.525518 10.187856 0.000000 0.000000 0.000000 55.030657 19.840564 -100.213150 90.854444 -59.997215 60.739925 -4.469045 -28.801526 -7.076520 0.000000 0.000000 0.000000 -7.125000 0.000000 0.000000 -25.732829 35.890092 -6.293515 0.000000 0.000000 0.000000 -113.705549 1.722453 -38.972942 -36.389820 -45.779467 -15.801230 23.516758 36.471161 -2.597220 0.000000 0.000000 0.000000 7.125000 0.000000 0.000000 35.522180 25.687036 20.727351
